<svg xmlns="http://www.w3.org/2000/svg" viewBox="0 0 64 40" shape-rendering="crispEdges"><rect x="0" y="0" width="64" height="5" fill="#bd098e"/><rect x="0" y="5" width="48" height="1" fill="#bd098e"/><rect x="48" y="5" width="4" height="1" fill="#f1c40f"/><rect x="52" y="5" width="12" height="1" fill="#bd098e"/><rect x="0" y="6" width="46" height="2" fill="#bd098e"/><rect x="46" y="6" width="8" height="2" fill="#f1c40f"/><rect x="54" y="6" width="10" height="2" fill="#bd098e"/><rect x="0" y="8" width="45" height="4" fill="#bd098e"/><rect x="45" y="8" width="10" height="4" fill="#f1c40f"/><rect x="55" y="8" width="9" height="4" fill="#bd098e"/><rect x="0" y="12" width="30" height="1" fill="#bd098e"/><rect x="30" y="12" width="3" height="1" fill="#f1c40f"/><rect x="33" y="12" width="13" height="1" fill="#bd098e"/><rect x="46" y="12" width="8" height="1" fill="#f1c40f"/><rect x="54" y="12" width="10" height="2" fill="#bd098e"/><rect x="0" y="13" width="17" height="1" fill="#bd098e"/><rect x="17" y="13" width="3" height="1" fill="#f1c40f"/><rect x="20" y="13" width="11" height="1" fill="#bd098e"/><rect x="31" y="13" width="1" height="5" fill="#212436"/><rect x="32" y="13" width="12" height="1" fill="#bd098e"/><rect x="44" y="13" width="10" height="1" fill="#f1c40f"/><rect x="0" y="14" width="18" height="5" fill="#bd098e"/><rect x="18" y="14" width="1" height="5" fill="#212436"/><rect x="19" y="14" width="12" height="4" fill="#bd098e"/><rect x="32" y="14" width="13" height="4" fill="#bd098e"/><rect x="45" y="14" width="1" height="5" fill="#212436"/><rect x="46" y="14" width="2" height="1" fill="#bd098e"/><rect x="48" y="14" width="4" height="1" fill="#f1c40f"/><rect x="52" y="14" width="12" height="1" fill="#bd098e"/><rect x="46" y="15" width="18" height="4" fill="#bd098e"/><rect x="19" y="18" width="3" height="1" fill="#bd098e"/><rect x="22" y="18" width="20" height="1" fill="#faf9fb"/><rect x="42" y="18" width="3" height="1" fill="#bd098e"/><rect x="0" y="19" width="16" height="1" fill="#bd098e"/><rect x="16" y="19" width="32" height="1" fill="#faf9fb"/><rect x="48" y="19" width="16" height="1" fill="#bd098e"/><rect x="0" y="20" width="12" height="1" fill="#bd098e"/><rect x="12" y="20" width="10" height="1" fill="#faf9fb"/><rect x="22" y="20" width="2" height="7" fill="#bd098e"/><rect x="24" y="20" width="1" height="7" fill="#b2b6cb"/><rect x="25" y="20" width="2" height="7" fill="#bd098e"/><rect x="27" y="20" width="1" height="7" fill="#b2b6cb"/><rect x="28" y="20" width="2" height="7" fill="#bd098e"/><rect x="30" y="20" width="1" height="7" fill="#b2b6cb"/><rect x="31" y="20" width="2" height="7" fill="#bd098e"/><rect x="33" y="20" width="1" height="7" fill="#b2b6cb"/><rect x="34" y="20" width="2" height="7" fill="#bd098e"/><rect x="36" y="20" width="1" height="7" fill="#b2b6cb"/><rect x="37" y="20" width="2" height="7" fill="#bd098e"/><rect x="39" y="20" width="1" height="7" fill="#b2b6cb"/><rect x="40" y="20" width="2" height="7" fill="#bd098e"/><rect x="42" y="20" width="10" height="1" fill="#faf9fb"/><rect x="52" y="20" width="12" height="1" fill="#bd098e"/><rect x="0" y="21" width="9" height="1" fill="#bd098e"/><rect x="9" y="21" width="7" height="1" fill="#faf9fb"/><rect x="16" y="21" width="2" height="6" fill="#bd098e"/><rect x="18" y="21" width="1" height="6" fill="#b2b6cb"/><rect x="19" y="21" width="2" height="6" fill="#bd098e"/><rect x="21" y="21" width="1" height="6" fill="#b2b6cb"/><rect x="42" y="21" width="1" height="6" fill="#b2b6cb"/><rect x="43" y="21" width="2" height="6" fill="#bd098e"/><rect x="45" y="21" width="1" height="6" fill="#b2b6cb"/><rect x="46" y="21" width="2" height="6" fill="#bd098e"/><rect x="48" y="21" width="7" height="1" fill="#faf9fb"/><rect x="55" y="21" width="9" height="1" fill="#bd098e"/><rect x="0" y="22" width="7" height="1" fill="#bd098e"/><rect x="7" y="22" width="5" height="1" fill="#faf9fb"/><rect x="12" y="22" width="1" height="5" fill="#b2b6cb"/><rect x="13" y="22" width="2" height="5" fill="#bd098e"/><rect x="15" y="22" width="1" height="5" fill="#b2b6cb"/><rect x="48" y="22" width="1" height="5" fill="#b2b6cb"/><rect x="49" y="22" width="2" height="5" fill="#bd098e"/><rect x="51" y="22" width="1" height="5" fill="#b2b6cb"/><rect x="52" y="22" width="5" height="1" fill="#faf9fb"/><rect x="57" y="22" width="7" height="1" fill="#bd098e"/><rect x="0" y="23" width="6" height="1" fill="#bd098e"/><rect x="6" y="23" width="3" height="1" fill="#faf9fb"/><rect x="9" y="23" width="1" height="4" fill="#b2b6cb"/><rect x="10" y="23" width="2" height="4" fill="#bd098e"/><rect x="52" y="23" width="2" height="4" fill="#bd098e"/><rect x="54" y="23" width="1" height="4" fill="#b2b6cb"/><rect x="55" y="23" width="3" height="1" fill="#faf9fb"/><rect x="58" y="23" width="6" height="1" fill="#bd098e"/><rect x="0" y="24" width="5" height="1" fill="#bd098e"/><rect x="5" y="24" width="2" height="1" fill="#faf9fb"/><rect x="7" y="24" width="2" height="3" fill="#bd098e"/><rect x="55" y="24" width="2" height="3" fill="#bd098e"/><rect x="57" y="24" width="2" height="1" fill="#faf9fb"/><rect x="59" y="24" width="5" height="1" fill="#bd098e"/><rect x="0" y="25" width="5" height="1" fill="#5d6285"/><rect x="5" y="25" width="1" height="1" fill="#faf9fb"/><rect x="6" y="25" width="1" height="2" fill="#b2b6cb"/><rect x="57" y="25" width="1" height="2" fill="#b2b6cb"/><rect x="58" y="25" width="1" height="1" fill="#faf9fb"/><rect x="59" y="25" width="5" height="1" fill="#5d6285"/><rect x="0" y="26" width="4" height="2" fill="#5d6285"/><rect x="4" y="26" width="1" height="2" fill="#faf9fb"/><rect x="5" y="26" width="1" height="1" fill="#bd098e"/><rect x="58" y="26" width="1" height="1" fill="#bd098e"/><rect x="59" y="26" width="1" height="2" fill="#faf9fb"/><rect x="60" y="26" width="4" height="2" fill="#5d6285"/><rect x="5" y="27" width="54" height="2" fill="#bd098e"/><rect x="0" y="28" width="5" height="1" fill="#5d6285"/><rect x="59" y="28" width="5" height="1" fill="#5d6285"/><rect x="0" y="29" width="4" height="1" fill="#5d6285"/><rect x="4" y="29" width="1" height="1" fill="#5a6cb0"/><rect x="5" y="29" width="54" height="1" fill="#2c3a6e"/><rect x="59" y="29" width="1" height="1" fill="#5a6cb0"/><rect x="60" y="29" width="4" height="1" fill="#5d6285"/><rect x="0" y="30" width="5" height="1" fill="#2c3a6e"/><rect x="5" y="30" width="1" height="1" fill="#5a6cb0"/><rect x="6" y="30" width="8" height="1" fill="#2c3a6e"/><rect x="14" y="30" width="2" height="1" fill="#5a6cb0"/><rect x="16" y="30" width="1" height="1" fill="#2c3a6e"/><rect x="17" y="30" width="2" height="1" fill="#5a6cb0"/><rect x="19" y="30" width="36" height="1" fill="#2c3a6e"/><rect x="55" y="30" width="2" height="1" fill="#5a6cb0"/><rect x="57" y="30" width="1" height="1" fill="#2c3a6e"/><rect x="58" y="30" width="1" height="1" fill="#5a6cb0"/><rect x="59" y="30" width="5" height="1" fill="#2c3a6e"/><rect x="0" y="31" width="6" height="1" fill="#2c3a6e"/><rect x="6" y="31" width="3" height="1" fill="#5a6cb0"/><rect x="9" y="31" width="46" height="1" fill="#2c3a6e"/><rect x="55" y="31" width="3" height="1" fill="#5a6cb0"/><rect x="58" y="31" width="6" height="1" fill="#2c3a6e"/><rect x="0" y="32" width="9" height="1" fill="#2c3a6e"/><rect x="9" y="32" width="7" height="1" fill="#5a6cb0"/><rect x="16" y="32" width="4" height="1" fill="#2c3a6e"/><rect x="20" y="32" width="2" height="1" fill="#5a6cb0"/><rect x="22" y="32" width="13" height="1" fill="#2c3a6e"/><rect x="35" y="32" width="2" height="1" fill="#5a6cb0"/><rect x="37" y="32" width="11" height="1" fill="#2c3a6e"/><rect x="48" y="32" width="7" height="1" fill="#5a6cb0"/><rect x="55" y="32" width="9" height="1" fill="#2c3a6e"/><rect x="0" y="33" width="16" height="1" fill="#2c3a6e"/><rect x="16" y="33" width="32" height="1" fill="#5a6cb0"/><rect x="48" y="33" width="16" height="1" fill="#2c3a6e"/><rect x="0" y="34" width="47" height="1" fill="#2c3a6e"/><rect x="47" y="34" width="3" height="1" fill="#5a6cb0"/><rect x="50" y="34" width="14" height="1" fill="#2c3a6e"/><rect x="0" y="35" width="5" height="1" fill="#2c3a6e"/><rect x="5" y="35" width="2" height="1" fill="#5a6cb0"/><rect x="7" y="35" width="57" height="1" fill="#2c3a6e"/><rect x="0" y="36" width="10" height="1" fill="#2c3a6e"/><rect x="10" y="36" width="4" height="1" fill="#5a6cb0"/><rect x="14" y="36" width="44" height="1" fill="#2c3a6e"/><rect x="58" y="36" width="3" height="1" fill="#5a6cb0"/><rect x="61" y="36" width="3" height="1" fill="#2c3a6e"/><rect x="0" y="37" width="23" height="1" fill="#2c3a6e"/><rect x="23" y="37" width="3" height="1" fill="#5a6cb0"/><rect x="26" y="37" width="8" height="1" fill="#2c3a6e"/><rect x="34" y="37" width="4" height="1" fill="#5a6cb0"/><rect x="38" y="37" width="26" height="1" fill="#2c3a6e"/><rect x="0" y="38" width="25" height="1" fill="#2c3a6e"/><rect x="25" y="38" width="3" height="1" fill="#5a6cb0"/><rect x="28" y="38" width="4" height="1" fill="#2c3a6e"/><rect x="32" y="38" width="3" height="1" fill="#5a6cb0"/><rect x="35" y="38" width="22" height="1" fill="#2c3a6e"/><rect x="57" y="38" width="2" height="1" fill="#5a6cb0"/><rect x="59" y="38" width="5" height="1" fill="#2c3a6e"/><rect x="0" y="39" width="2" height="1" fill="#2c3a6e"/><rect x="2" y="39" width="4" height="1" fill="#5a6cb0"/><rect x="6" y="39" width="58" height="1" fill="#2c3a6e"/></svg>
