<svg xmlns="http://www.w3.org/2000/svg" viewBox="0 0 291 136" shape-rendering="crispEdges" role="img" aria-label="Sunil Gauda, Software Engineer, Dublin, Ireland, typing code at a laptop"><title>Sunil Gauda, Software Engineer, Dublin, Ireland, typing code at a laptop</title><style>
.px-hand{animation:type .45s step-end infinite}
.px-hand-b{animation-delay:.22s}
.px-code-type{transform-box:fill-box;transform-origin:left center;animation:code 2.4s step-end infinite}
.px-cursor{animation:blink .9s step-end infinite}
.px-steam{opacity:0;animation:rise 2.4s steps(10) infinite}
.px-steam-b{animation-delay:.8s}.px-steam-c{animation-delay:1.6s}
.px-head{animation:bob 4s step-end infinite}
.px-drift-a{animation:drift 7s step-end infinite}
.px-drift-b{animation:drift 9s step-end infinite reverse}
.px-drift-c{animation:drift 11s step-end infinite}
@keyframes type{0%,49%{transform:translateY(0)}50%,100%{transform:translateY(2px)}}
@keyframes code{0%{transform:scaleX(.15)}25%{transform:scaleX(.45)}50%{transform:scaleX(.7)}75%{transform:scaleX(1)}100%{transform:scaleX(.15)}}
@keyframes blink{0%,50%{opacity:1}51%,100%{opacity:0}}
@keyframes rise{0%{transform:translateY(0);opacity:0}15%{opacity:.75}100%{transform:translateY(-10px);opacity:0}}
@keyframes bob{0%,92%{transform:translateY(0)}94%,98%{transform:translateY(1px)}100%{transform:translateY(0)}}
@keyframes drift{0%,100%{transform:translateX(0)}50%{transform:translateX(4px)}}
@media (prefers-reduced-motion:reduce){*{animation:none!important}.px-steam{opacity:0}}
</style><rect x="0" y="0" width="291" height="2" fill="#faf9fb"/><rect x="0" y="2" width="2" height="132" fill="#faf9fb"/><rect x="2" y="2" width="287" height="8" fill="#212436"/><rect x="289" y="2" width="2" height="132" fill="#faf9fb"/><rect x="2" y="10" width="10" height="58" fill="#212436"/><rect x="12" y="10" width="95" height="4" fill="#f1c40f"/><rect x="107" y="10" width="182" height="58" fill="#212436"/><rect x="12" y="14" width="7" height="3" fill="#f1c40f"/><rect x="19" y="14" width="12" height="3" fill="#212436"/><rect x="31" y="14" width="3" height="3" fill="#f1c40f"/><rect x="34" y="14" width="3" height="18" fill="#212436"/><rect x="37" y="14" width="9" height="18" fill="#f1c40f"/><rect x="46" y="14" width="3" height="18" fill="#212436"/><rect x="49" y="14" width="3" height="18" fill="#f1c40f"/><rect x="52" y="14" width="3" height="3" fill="#212436"/><rect x="55" y="14" width="9" height="3" fill="#f1c40f"/><rect x="64" y="14" width="3" height="9" fill="#212436"/><rect x="67" y="14" width="3" height="3" fill="#f1c40f"/><rect x="70" y="14" width="15" height="3" fill="#212436"/><rect x="85" y="14" width="3" height="3" fill="#f1c40f"/><rect x="88" y="14" width="3" height="18" fill="#212436"/><rect x="91" y="14" width="16" height="18" fill="#f1c40f"/><rect x="12" y="17" width="4" height="6" fill="#f1c40f"/><rect x="16" y="17" width="3" height="6" fill="#212436"/><rect x="19" y="17" width="15" height="6" fill="#f1c40f"/><rect x="52" y="17" width="6" height="3" fill="#212436"/><rect x="58" y="17" width="6" height="3" fill="#f1c40f"/><rect x="67" y="17" width="9" height="15" fill="#f1c40f"/><rect x="76" y="17" width="3" height="15" fill="#212436"/><rect x="79" y="17" width="9" height="15" fill="#f1c40f"/><rect x="52" y="20" width="3" height="15" fill="#212436"/><rect x="55" y="20" width="3" height="3" fill="#f1c40f"/><rect x="58" y="20" width="3" height="3" fill="#212436"/><rect x="61" y="20" width="3" height="3" fill="#f1c40f"/><rect x="12" y="23" width="7" height="3" fill="#f1c40f"/><rect x="19" y="23" width="9" height="3" fill="#212436"/><rect x="28" y="23" width="6" height="3" fill="#f1c40f"/><rect x="55" y="23" width="6" height="3" fill="#f1c40f"/><rect x="61" y="23" width="6" height="3" fill="#212436"/><rect x="12" y="26" width="16" height="6" fill="#f1c40f"/><rect x="28" y="26" width="3" height="6" fill="#212436"/><rect x="31" y="26" width="3" height="6" fill="#f1c40f"/><rect x="55" y="26" width="9" height="9" fill="#f1c40f"/><rect x="64" y="26" width="3" height="9" fill="#212436"/><rect x="12" y="32" width="4" height="3" fill="#f1c40f"/><rect x="16" y="32" width="12" height="3" fill="#212436"/><rect x="28" y="32" width="9" height="3" fill="#f1c40f"/><rect x="37" y="32" width="9" height="3" fill="#212436"/><rect x="46" y="32" width="6" height="3" fill="#f1c40f"/><rect x="67" y="32" width="3" height="3" fill="#f1c40f"/><rect x="70" y="32" width="15" height="3" fill="#212436"/><rect x="85" y="32" width="3" height="3" fill="#f1c40f"/><rect x="88" y="32" width="15" height="3" fill="#212436"/><rect x="103" y="32" width="4" height="3" fill="#f1c40f"/><rect x="12" y="35" width="95" height="4" fill="#f1c40f"/><rect x="12" y="39" width="95" height="4" fill="#bd098e"/><rect x="12" y="43" width="7" height="3" fill="#bd098e"/><rect x="19" y="43" width="12" height="3" fill="#faf9fb"/><rect x="31" y="43" width="6" height="3" fill="#bd098e"/><rect x="37" y="43" width="9" height="3" fill="#faf9fb"/><rect x="46" y="43" width="6" height="3" fill="#bd098e"/><rect x="52" y="43" width="3" height="18" fill="#faf9fb"/><rect x="55" y="43" width="9" height="18" fill="#bd098e"/><rect x="64" y="43" width="3" height="18" fill="#faf9fb"/><rect x="67" y="43" width="3" height="18" fill="#bd098e"/><rect x="70" y="43" width="12" height="3" fill="#faf9fb"/><rect x="82" y="43" width="9" height="3" fill="#bd098e"/><rect x="91" y="43" width="9" height="3" fill="#faf9fb"/><rect x="100" y="43" width="7" height="3" fill="#bd098e"/><rect x="12" y="46" width="4" height="15" fill="#bd098e"/><rect x="16" y="46" width="3" height="15" fill="#faf9fb"/><rect x="19" y="46" width="15" height="6" fill="#bd098e"/><rect x="34" y="46" width="3" height="6" fill="#faf9fb"/><rect x="37" y="46" width="9" height="6" fill="#bd098e"/><rect x="46" y="46" width="3" height="6" fill="#faf9fb"/><rect x="49" y="46" width="3" height="15" fill="#bd098e"/><rect x="70" y="46" width="3" height="15" fill="#faf9fb"/><rect x="73" y="46" width="9" height="15" fill="#bd098e"/><rect x="82" y="46" width="3" height="15" fill="#faf9fb"/><rect x="85" y="46" width="3" height="15" fill="#bd098e"/><rect x="88" y="46" width="3" height="6" fill="#faf9fb"/><rect x="91" y="46" width="9" height="6" fill="#bd098e"/><rect x="100" y="46" width="3" height="6" fill="#faf9fb"/><rect x="103" y="46" width="4" height="18" fill="#bd098e"/><rect x="19" y="52" width="3" height="3" fill="#bd098e"/><rect x="22" y="52" width="9" height="3" fill="#faf9fb"/><rect x="31" y="52" width="3" height="12" fill="#bd098e"/><rect x="34" y="52" width="15" height="3" fill="#faf9fb"/><rect x="88" y="52" width="15" height="3" fill="#faf9fb"/><rect x="19" y="55" width="9" height="6" fill="#bd098e"/><rect x="28" y="55" width="3" height="6" fill="#faf9fb"/><rect x="34" y="55" width="3" height="9" fill="#faf9fb"/><rect x="37" y="55" width="9" height="9" fill="#bd098e"/><rect x="46" y="55" width="3" height="9" fill="#faf9fb"/><rect x="88" y="55" width="3" height="9" fill="#faf9fb"/><rect x="91" y="55" width="9" height="9" fill="#bd098e"/><rect x="100" y="55" width="3" height="9" fill="#faf9fb"/><rect x="12" y="61" width="7" height="3" fill="#bd098e"/><rect x="19" y="61" width="12" height="3" fill="#faf9fb"/><rect x="49" y="61" width="6" height="3" fill="#bd098e"/><rect x="55" y="61" width="9" height="3" fill="#faf9fb"/><rect x="64" y="61" width="6" height="3" fill="#bd098e"/><rect x="70" y="61" width="12" height="3" fill="#faf9fb"/><rect x="82" y="61" width="6" height="3" fill="#bd098e"/><rect x="12" y="64" width="95" height="4" fill="#bd098e"/><rect x="2" y="68" width="287" height="8" fill="#212436"/><rect x="2" y="76" width="12" height="2" fill="#212436"/><rect x="14" y="76" width="8" height="2" fill="#faf9fb"/><rect x="22" y="76" width="4" height="2" fill="#212436"/><rect x="26" y="76" width="6" height="2" fill="#faf9fb"/><rect x="32" y="76" width="4" height="2" fill="#212436"/><rect x="36" y="76" width="10" height="2" fill="#faf9fb"/><rect x="46" y="76" width="2" height="2" fill="#212436"/><rect x="48" y="76" width="10" height="2" fill="#faf9fb"/><rect x="58" y="76" width="2" height="2" fill="#212436"/><rect x="60" y="76" width="2" height="10" fill="#faf9fb"/><rect x="62" y="76" width="6" height="6" fill="#212436"/><rect x="68" y="76" width="2" height="10" fill="#faf9fb"/><rect x="70" y="76" width="4" height="2" fill="#212436"/><rect x="74" y="76" width="6" height="2" fill="#faf9fb"/><rect x="80" y="76" width="4" height="2" fill="#212436"/><rect x="84" y="76" width="8" height="2" fill="#faf9fb"/><rect x="92" y="76" width="4" height="2" fill="#212436"/><rect x="96" y="76" width="10" height="2" fill="#faf9fb"/><rect x="106" y="76" width="183" height="2" fill="#212436"/><rect x="2" y="78" width="10" height="4" fill="#212436"/><rect x="12" y="78" width="2" height="4" fill="#faf9fb"/><rect x="14" y="78" width="10" height="4" fill="#212436"/><rect x="24" y="78" width="2" height="10" fill="#faf9fb"/><rect x="26" y="78" width="6" height="10" fill="#212436"/><rect x="32" y="78" width="2" height="10" fill="#faf9fb"/><rect x="34" y="78" width="2" height="10" fill="#212436"/><rect x="36" y="78" width="2" height="4" fill="#faf9fb"/><rect x="38" y="78" width="14" height="4" fill="#212436"/><rect x="52" y="78" width="2" height="12" fill="#faf9fb"/><rect x="54" y="78" width="6" height="12" fill="#212436"/><rect x="70" y="78" width="2" height="12" fill="#212436"/><rect x="72" y="78" width="2" height="4" fill="#faf9fb"/><rect x="74" y="78" width="6" height="4" fill="#212436"/><rect x="80" y="78" width="2" height="4" fill="#faf9fb"/><rect x="82" y="78" width="2" height="12" fill="#212436"/><rect x="84" y="78" width="2" height="4" fill="#faf9fb"/><rect x="86" y="78" width="6" height="4" fill="#212436"/><rect x="92" y="78" width="2" height="4" fill="#faf9fb"/><rect x="94" y="78" width="2" height="4" fill="#212436"/><rect x="96" y="78" width="2" height="4" fill="#faf9fb"/><rect x="98" y="78" width="191" height="4" fill="#212436"/><rect x="2" y="82" width="12" height="2" fill="#212436"/><rect x="14" y="82" width="6" height="2" fill="#faf9fb"/><rect x="20" y="82" width="4" height="2" fill="#212436"/><rect x="36" y="82" width="8" height="2" fill="#faf9fb"/><rect x="44" y="82" width="8" height="2" fill="#212436"/><rect x="62" y="82" width="2" height="4" fill="#212436"/><rect x="64" y="82" width="2" height="4" fill="#faf9fb"/><rect x="66" y="82" width="2" height="4" fill="#212436"/><rect x="72" y="82" width="10" height="2" fill="#faf9fb"/><rect x="84" y="82" width="8" height="2" fill="#faf9fb"/><rect x="92" y="82" width="4" height="2" fill="#212436"/><rect x="96" y="82" width="8" height="2" fill="#faf9fb"/><rect x="104" y="82" width="185" height="2" fill="#212436"/><rect x="2" y="84" width="18" height="4" fill="#212436"/><rect x="20" y="84" width="2" height="4" fill="#faf9fb"/><rect x="22" y="84" width="2" height="4" fill="#212436"/><rect x="36" y="84" width="2" height="6" fill="#faf9fb"/><rect x="38" y="84" width="14" height="6" fill="#212436"/><rect x="72" y="84" width="2" height="6" fill="#faf9fb"/><rect x="74" y="84" width="6" height="6" fill="#212436"/><rect x="80" y="84" width="2" height="6" fill="#faf9fb"/><rect x="84" y="84" width="2" height="6" fill="#faf9fb"/><rect x="86" y="84" width="2" height="2" fill="#212436"/><rect x="88" y="84" width="2" height="2" fill="#faf9fb"/><rect x="90" y="84" width="6" height="2" fill="#212436"/><rect x="96" y="84" width="2" height="4" fill="#faf9fb"/><rect x="98" y="84" width="191" height="4" fill="#212436"/><rect x="60" y="86" width="4" height="2" fill="#faf9fb"/><rect x="64" y="86" width="2" height="2" fill="#212436"/><rect x="66" y="86" width="4" height="2" fill="#faf9fb"/><rect x="86" y="86" width="4" height="2" fill="#212436"/><rect x="90" y="86" width="2" height="2" fill="#faf9fb"/><rect x="92" y="86" width="4" height="2" fill="#212436"/><rect x="2" y="88" width="10" height="2" fill="#212436"/><rect x="12" y="88" width="8" height="2" fill="#faf9fb"/><rect x="20" y="88" width="6" height="2" fill="#212436"/><rect x="26" y="88" width="6" height="2" fill="#faf9fb"/><rect x="32" y="88" width="4" height="2" fill="#212436"/><rect x="60" y="88" width="2" height="2" fill="#faf9fb"/><rect x="62" y="88" width="6" height="2" fill="#212436"/><rect x="68" y="88" width="2" height="2" fill="#faf9fb"/><rect x="86" y="88" width="6" height="2" fill="#212436"/><rect x="92" y="88" width="2" height="2" fill="#faf9fb"/><rect x="94" y="88" width="2" height="2" fill="#212436"/><rect x="96" y="88" width="10" height="2" fill="#faf9fb"/><rect x="106" y="88" width="183" height="2" fill="#212436"/><rect x="2" y="90" width="287" height="4" fill="#212436"/><rect x="2" y="94" width="10" height="14" fill="#212436"/><rect x="12" y="94" width="10" height="2" fill="#faf9fb"/><rect x="22" y="94" width="2" height="2" fill="#212436"/><rect x="24" y="94" width="2" height="2" fill="#faf9fb"/><rect x="26" y="94" width="6" height="2" fill="#212436"/><rect x="32" y="94" width="2" height="6" fill="#faf9fb"/><rect x="34" y="94" width="4" height="2" fill="#212436"/><rect x="38" y="94" width="8" height="2" fill="#faf9fb"/><rect x="46" y="94" width="2" height="2" fill="#212436"/><rect x="48" y="94" width="10" height="2" fill="#faf9fb"/><rect x="58" y="94" width="2" height="2" fill="#212436"/><rect x="60" y="94" width="2" height="2" fill="#faf9fb"/><rect x="62" y="94" width="6" height="2" fill="#212436"/><rect x="68" y="94" width="2" height="6" fill="#faf9fb"/><rect x="70" y="94" width="2" height="14" fill="#212436"/><rect x="72" y="94" width="10" height="2" fill="#faf9fb"/><rect x="82" y="94" width="2" height="2" fill="#212436"/><rect x="84" y="94" width="10" height="2" fill="#faf9fb"/><rect x="94" y="94" width="2" height="2" fill="#212436"/><rect x="96" y="94" width="8" height="2" fill="#faf9fb"/><rect x="104" y="94" width="185" height="2" fill="#212436"/><rect x="12" y="96" width="2" height="4" fill="#faf9fb"/><rect x="14" y="96" width="10" height="4" fill="#212436"/><rect x="24" y="96" width="4" height="2" fill="#faf9fb"/><rect x="28" y="96" width="4" height="2" fill="#212436"/><rect x="34" y="96" width="2" height="10" fill="#212436"/><rect x="36" y="96" width="2" height="10" fill="#faf9fb"/><rect x="38" y="96" width="14" height="4" fill="#212436"/><rect x="52" y="96" width="2" height="10" fill="#faf9fb"/><rect x="54" y="96" width="6" height="10" fill="#212436"/><rect x="60" y="96" width="4" height="2" fill="#faf9fb"/><rect x="64" y="96" width="4" height="2" fill="#212436"/><rect x="72" y="96" width="2" height="4" fill="#faf9fb"/><rect x="74" y="96" width="10" height="4" fill="#212436"/><rect x="84" y="96" width="2" height="4" fill="#faf9fb"/><rect x="86" y="96" width="10" height="4" fill="#212436"/><rect x="96" y="96" width="2" height="4" fill="#faf9fb"/><rect x="98" y="96" width="6" height="4" fill="#212436"/><rect x="104" y="96" width="2" height="4" fill="#faf9fb"/><rect x="106" y="96" width="183" height="4" fill="#212436"/><rect x="24" y="98" width="2" height="10" fill="#faf9fb"/><rect x="26" y="98" width="2" height="2" fill="#212436"/><rect x="28" y="98" width="2" height="2" fill="#faf9fb"/><rect x="30" y="98" width="2" height="2" fill="#212436"/><rect x="60" y="98" width="2" height="10" fill="#faf9fb"/><rect x="62" y="98" width="2" height="2" fill="#212436"/><rect x="64" y="98" width="2" height="2" fill="#faf9fb"/><rect x="66" y="98" width="2" height="2" fill="#212436"/><rect x="12" y="100" width="8" height="2" fill="#faf9fb"/><rect x="20" y="100" width="4" height="2" fill="#212436"/><rect x="26" y="100" width="4" height="2" fill="#212436"/><rect x="30" y="100" width="4" height="2" fill="#faf9fb"/><rect x="38" y="100" width="2" height="2" fill="#212436"/><rect x="40" y="100" width="6" height="2" fill="#faf9fb"/><rect x="46" y="100" width="6" height="6" fill="#212436"/><rect x="62" y="100" width="4" height="2" fill="#212436"/><rect x="66" y="100" width="4" height="2" fill="#faf9fb"/><rect x="72" y="100" width="8" height="2" fill="#faf9fb"/><rect x="80" y="100" width="4" height="2" fill="#212436"/><rect x="84" y="100" width="8" height="2" fill="#faf9fb"/><rect x="92" y="100" width="4" height="2" fill="#212436"/><rect x="96" y="100" width="8" height="2" fill="#faf9fb"/><rect x="104" y="100" width="185" height="2" fill="#212436"/><rect x="12" y="102" width="2" height="4" fill="#faf9fb"/><rect x="14" y="102" width="10" height="4" fill="#212436"/><rect x="26" y="102" width="6" height="6" fill="#212436"/><rect x="32" y="102" width="2" height="6" fill="#faf9fb"/><rect x="38" y="102" width="6" height="4" fill="#212436"/><rect x="44" y="102" width="2" height="4" fill="#faf9fb"/><rect x="62" y="102" width="6" height="6" fill="#212436"/><rect x="68" y="102" width="2" height="6" fill="#faf9fb"/><rect x="72" y="102" width="2" height="4" fill="#faf9fb"/><rect x="74" y="102" width="10" height="4" fill="#212436"/><rect x="84" y="102" width="2" height="4" fill="#faf9fb"/><rect x="86" y="102" width="10" height="4" fill="#212436"/><rect x="96" y="102" width="2" height="6" fill="#faf9fb"/><rect x="98" y="102" width="2" height="2" fill="#212436"/><rect x="100" y="102" width="2" height="2" fill="#faf9fb"/><rect x="102" y="102" width="187" height="2" fill="#212436"/><rect x="98" y="104" width="4" height="2" fill="#212436"/><rect x="102" y="104" width="2" height="2" fill="#faf9fb"/><rect x="104" y="104" width="185" height="2" fill="#212436"/><rect x="12" y="106" width="10" height="2" fill="#faf9fb"/><rect x="22" y="106" width="2" height="2" fill="#212436"/><rect x="34" y="106" width="4" height="2" fill="#212436"/><rect x="38" y="106" width="8" height="2" fill="#faf9fb"/><rect x="46" y="106" width="2" height="2" fill="#212436"/><rect x="48" y="106" width="10" height="2" fill="#faf9fb"/><rect x="58" y="106" width="2" height="2" fill="#212436"/><rect x="72" y="106" width="10" height="2" fill="#faf9fb"/><rect x="82" y="106" width="2" height="2" fill="#212436"/><rect x="84" y="106" width="10" height="2" fill="#faf9fb"/><rect x="94" y="106" width="2" height="2" fill="#212436"/><rect x="98" y="106" width="6" height="2" fill="#212436"/><rect x="104" y="106" width="2" height="2" fill="#faf9fb"/><rect x="106" y="106" width="183" height="2" fill="#212436"/><rect x="2" y="108" width="287" height="5" fill="#212436"/><rect x="2" y="113" width="10" height="1" fill="#212436"/><rect x="12" y="113" width="95" height="1" fill="#b2b6cb"/><rect x="107" y="113" width="182" height="1" fill="#212436"/><rect x="2" y="114" width="287" height="4" fill="#212436"/><rect x="2" y="118" width="10" height="7" fill="#212436"/><rect x="12" y="118" width="4" height="1" fill="#b2b6cb"/><rect x="16" y="118" width="2" height="1" fill="#212436"/><rect x="18" y="118" width="1" height="6" fill="#b2b6cb"/><rect x="19" y="118" width="3" height="6" fill="#212436"/><rect x="22" y="118" width="1" height="6" fill="#b2b6cb"/><rect x="23" y="118" width="1" height="6" fill="#212436"/><rect x="24" y="118" width="4" height="1" fill="#b2b6cb"/><rect x="28" y="118" width="2" height="1" fill="#212436"/><rect x="30" y="118" width="1" height="6" fill="#b2b6cb"/><rect x="31" y="118" width="5" height="1" fill="#212436"/><rect x="36" y="118" width="5" height="1" fill="#b2b6cb"/><rect x="41" y="118" width="1" height="1" fill="#212436"/><rect x="42" y="118" width="1" height="1" fill="#b2b6cb"/><rect x="43" y="118" width="3" height="1" fill="#212436"/><rect x="46" y="118" width="1" height="3" fill="#b2b6cb"/><rect x="47" y="118" width="13" height="1" fill="#212436"/><rect x="60" y="118" width="5" height="1" fill="#b2b6cb"/><rect x="65" y="118" width="1" height="1" fill="#212436"/><rect x="66" y="118" width="4" height="1" fill="#b2b6cb"/><rect x="70" y="118" width="2" height="1" fill="#212436"/><rect x="72" y="118" width="5" height="1" fill="#b2b6cb"/><rect x="77" y="118" width="1" height="1" fill="#212436"/><rect x="78" y="118" width="1" height="6" fill="#b2b6cb"/><rect x="79" y="118" width="6" height="1" fill="#212436"/><rect x="85" y="118" width="3" height="1" fill="#b2b6cb"/><rect x="88" y="118" width="2" height="1" fill="#212436"/><rect x="90" y="118" width="1" height="1" fill="#b2b6cb"/><rect x="91" y="118" width="3" height="1" fill="#212436"/><rect x="94" y="118" width="1" height="3" fill="#b2b6cb"/><rect x="95" y="118" width="1" height="7" fill="#212436"/><rect x="96" y="118" width="4" height="1" fill="#b2b6cb"/><rect x="100" y="118" width="189" height="1" fill="#212436"/><rect x="12" y="119" width="1" height="5" fill="#b2b6cb"/><rect x="13" y="119" width="3" height="5" fill="#212436"/><rect x="16" y="119" width="1" height="5" fill="#b2b6cb"/><rect x="17" y="119" width="1" height="5" fill="#212436"/><rect x="24" y="119" width="1" height="2" fill="#b2b6cb"/><rect x="25" y="119" width="3" height="2" fill="#212436"/><rect x="28" y="119" width="1" height="2" fill="#b2b6cb"/><rect x="29" y="119" width="1" height="2" fill="#212436"/><rect x="31" y="119" width="7" height="5" fill="#212436"/><rect x="38" y="119" width="1" height="5" fill="#b2b6cb"/><rect x="39" y="119" width="3" height="5" fill="#212436"/><rect x="42" y="119" width="2" height="1" fill="#b2b6cb"/><rect x="44" y="119" width="2" height="1" fill="#212436"/><rect x="47" y="119" width="15" height="4" fill="#212436"/><rect x="62" y="119" width="1" height="5" fill="#b2b6cb"/><rect x="63" y="119" width="3" height="5" fill="#212436"/><rect x="66" y="119" width="1" height="2" fill="#b2b6cb"/><rect x="67" y="119" width="3" height="2" fill="#212436"/><rect x="70" y="119" width="1" height="2" fill="#b2b6cb"/><rect x="71" y="119" width="1" height="2" fill="#212436"/><rect x="72" y="119" width="1" height="2" fill="#b2b6cb"/><rect x="73" y="119" width="5" height="2" fill="#212436"/><rect x="79" y="119" width="5" height="5" fill="#212436"/><rect x="84" y="119" width="1" height="2" fill="#b2b6cb"/><rect x="85" y="119" width="3" height="2" fill="#212436"/><rect x="88" y="119" width="1" height="2" fill="#b2b6cb"/><rect x="89" y="119" width="1" height="6" fill="#212436"/><rect x="90" y="119" width="2" height="1" fill="#b2b6cb"/><rect x="92" y="119" width="2" height="1" fill="#212436"/><rect x="96" y="119" width="1" height="5" fill="#b2b6cb"/><rect x="97" y="119" width="3" height="5" fill="#212436"/><rect x="100" y="119" width="1" height="5" fill="#b2b6cb"/><rect x="101" y="119" width="188" height="5" fill="#212436"/><rect x="42" y="120" width="1" height="5" fill="#b2b6cb"/><rect x="43" y="120" width="1" height="1" fill="#212436"/><rect x="44" y="120" width="1" height="1" fill="#b2b6cb"/><rect x="45" y="120" width="1" height="1" fill="#212436"/><rect x="90" y="120" width="1" height="5" fill="#b2b6cb"/><rect x="91" y="120" width="1" height="1" fill="#212436"/><rect x="92" y="120" width="1" height="1" fill="#b2b6cb"/><rect x="93" y="120" width="1" height="1" fill="#212436"/><rect x="24" y="121" width="4" height="1" fill="#b2b6cb"/><rect x="28" y="121" width="2" height="1" fill="#212436"/><rect x="43" y="121" width="2" height="1" fill="#212436"/><rect x="45" y="121" width="2" height="1" fill="#b2b6cb"/><rect x="66" y="121" width="4" height="1" fill="#b2b6cb"/><rect x="70" y="121" width="2" height="1" fill="#212436"/><rect x="72" y="121" width="4" height="1" fill="#b2b6cb"/><rect x="76" y="121" width="2" height="1" fill="#212436"/><rect x="84" y="121" width="5" height="1" fill="#b2b6cb"/><rect x="91" y="121" width="2" height="1" fill="#212436"/><rect x="93" y="121" width="2" height="1" fill="#b2b6cb"/><rect x="24" y="122" width="1" height="2" fill="#b2b6cb"/><rect x="25" y="122" width="3" height="2" fill="#212436"/><rect x="28" y="122" width="1" height="2" fill="#b2b6cb"/><rect x="29" y="122" width="1" height="2" fill="#212436"/><rect x="43" y="122" width="3" height="3" fill="#212436"/><rect x="46" y="122" width="1" height="3" fill="#b2b6cb"/><rect x="66" y="122" width="1" height="3" fill="#b2b6cb"/><rect x="67" y="122" width="1" height="1" fill="#212436"/><rect x="68" y="122" width="1" height="1" fill="#b2b6cb"/><rect x="69" y="122" width="3" height="1" fill="#212436"/><rect x="72" y="122" width="1" height="2" fill="#b2b6cb"/><rect x="73" y="122" width="5" height="2" fill="#212436"/><rect x="84" y="122" width="1" height="3" fill="#b2b6cb"/><rect x="85" y="122" width="3" height="3" fill="#212436"/><rect x="88" y="122" width="1" height="3" fill="#b2b6cb"/><rect x="91" y="122" width="3" height="3" fill="#212436"/><rect x="94" y="122" width="1" height="3" fill="#b2b6cb"/><rect x="47" y="123" width="3" height="1" fill="#212436"/><rect x="50" y="123" width="1" height="1" fill="#b2b6cb"/><rect x="51" y="123" width="11" height="1" fill="#212436"/><rect x="67" y="123" width="2" height="1" fill="#212436"/><rect x="69" y="123" width="1" height="1" fill="#b2b6cb"/><rect x="70" y="123" width="2" height="1" fill="#212436"/><rect x="12" y="124" width="4" height="1" fill="#b2b6cb"/><rect x="16" y="124" width="3" height="1" fill="#212436"/><rect x="19" y="124" width="3" height="1" fill="#b2b6cb"/><rect x="22" y="124" width="2" height="1" fill="#212436"/><rect x="24" y="124" width="4" height="1" fill="#b2b6cb"/><rect x="28" y="124" width="2" height="1" fill="#212436"/><rect x="30" y="124" width="5" height="1" fill="#b2b6cb"/><rect x="35" y="124" width="1" height="1" fill="#212436"/><rect x="36" y="124" width="5" height="1" fill="#b2b6cb"/><rect x="41" y="124" width="1" height="1" fill="#212436"/><rect x="47" y="124" width="2" height="1" fill="#212436"/><rect x="49" y="124" width="1" height="1" fill="#b2b6cb"/><rect x="50" y="124" width="10" height="1" fill="#212436"/><rect x="60" y="124" width="5" height="1" fill="#b2b6cb"/><rect x="65" y="124" width="1" height="1" fill="#212436"/><rect x="67" y="124" width="3" height="1" fill="#212436"/><rect x="70" y="124" width="1" height="1" fill="#b2b6cb"/><rect x="71" y="124" width="1" height="1" fill="#212436"/><rect x="72" y="124" width="5" height="1" fill="#b2b6cb"/><rect x="77" y="124" width="1" height="1" fill="#212436"/><rect x="78" y="124" width="5" height="1" fill="#b2b6cb"/><rect x="83" y="124" width="1" height="1" fill="#212436"/><rect x="96" y="124" width="4" height="1" fill="#b2b6cb"/><rect x="100" y="124" width="189" height="1" fill="#212436"/><rect x="2" y="125" width="287" height="9" fill="#212436"/><rect x="0" y="134" width="291" height="2" fill="#faf9fb"/><svg x="121" y="12" width="158" height="112" viewBox="0 0 96 68"><g class="px-drift px-drift-a" opacity="0.4"><rect x="3" y="8" width="2" height="1" fill="#4458a0"/><rect x="10" y="8" width="2" height="1" fill="#4458a0"/><rect x="17" y="8" width="2" height="1" fill="#4458a0"/><rect x="2" y="9" width="4" height="2" fill="#4458a0"/><rect x="9" y="9" width="4" height="2" fill="#4458a0"/><rect x="16" y="9" width="4" height="2" fill="#4458a0"/><rect x="3" y="11" width="2" height="1" fill="#4458a0"/><rect x="10" y="11" width="2" height="1" fill="#4458a0"/><rect x="17" y="11" width="2" height="1" fill="#4458a0"/></g><g class="px-drift px-drift-c" opacity="0.35"><rect x="2" y="20" width="1" height="1" fill="#bd098e"/><rect x="8" y="20" width="1" height="1" fill="#bd098e"/><rect x="14" y="20" width="1" height="1" fill="#bd098e"/><rect x="2" y="21" width="2" height="1" fill="#bd098e"/><rect x="7" y="21" width="3" height="1" fill="#bd098e"/><rect x="13" y="21" width="3" height="1" fill="#bd098e"/><rect x="3" y="22" width="2" height="1" fill="#bd098e"/><rect x="6" y="22" width="2" height="1" fill="#bd098e"/><rect x="9" y="22" width="2" height="1" fill="#bd098e"/><rect x="12" y="22" width="2" height="1" fill="#bd098e"/><rect x="15" y="22" width="1" height="1" fill="#bd098e"/><rect x="4" y="23" width="3" height="1" fill="#bd098e"/><rect x="10" y="23" width="3" height="1" fill="#bd098e"/><rect x="5" y="24" width="1" height="1" fill="#bd098e"/><rect x="11" y="24" width="1" height="1" fill="#bd098e"/><rect x="6" y="28" width="4" height="4" fill="#bd098e"/></g><g class="px-drift px-drift-b" opacity="0.35"><rect x="82" y="4" width="1" height="1" fill="#cd2d48"/><rect x="81" y="5" width="3" height="1" fill="#cd2d48"/><rect x="80" y="6" width="5" height="1" fill="#cd2d48"/><rect x="90" y="9" width="1" height="1" fill="#cd2d48"/><rect x="89" y="10" width="3" height="1" fill="#cd2d48"/><rect x="88" y="11" width="5" height="1" fill="#cd2d48"/><rect x="92" y="17" width="1" height="1" fill="#cd2d48"/><rect x="91" y="18" width="3" height="1" fill="#cd2d48"/><rect x="90" y="19" width="5" height="1" fill="#cd2d48"/></g><rect x="19" y="4" width="58" height="1" fill="#f1c40f"/><rect x="18" y="5" width="59" height="1" fill="#f1c40f"/><rect x="77" y="5" width="1" height="32" fill="#c29d0b"/><rect x="18" y="6" width="29" height="1" fill="#f1c40f"/><rect x="47" y="6" width="2" height="1" fill="#212436"/><rect x="49" y="6" width="28" height="1" fill="#f1c40f"/><rect x="18" y="7" width="59" height="1" fill="#f1c40f"/><rect x="18" y="8" width="4" height="26" fill="#f1c40f"/><rect x="22" y="8" width="52" height="3" fill="#212436"/><rect x="74" y="8" width="3" height="26" fill="#f1c40f"/><rect x="22" y="11" width="2" height="2" fill="#212436"/><rect x="24" y="11" width="2" height="2" fill="#5d6285"/><rect x="26" y="11" width="4" height="2" fill="#212436"/><rect x="30" y="11" width="9" height="2" fill="#bd098e"/><rect x="39" y="11" width="2" height="2" fill="#212436"/><rect x="41" y="11" width="10" height="2" fill="#faf9fb"/><rect x="51" y="11" width="2" height="2" fill="#212436"/><rect x="53" y="11" width="4" height="2" fill="#f1c40f"/><rect x="57" y="11" width="17" height="2" fill="#212436"/><rect x="22" y="13" width="52" height="2" fill="#212436"/><rect x="22" y="15" width="2" height="2" fill="#212436"/><rect x="24" y="15" width="2" height="2" fill="#5d6285"/><rect x="26" y="15" width="8" height="2" fill="#212436"/><rect x="34" y="15" width="13" height="2" fill="#faf9fb"/><rect x="47" y="15" width="2" height="2" fill="#212436"/><rect x="49" y="15" width="12" height="2" fill="#f1c40f"/><rect x="61" y="15" width="13" height="2" fill="#212436"/><rect x="22" y="17" width="52" height="2" fill="#212436"/><rect x="22" y="19" width="2" height="2" fill="#212436"/><rect x="24" y="19" width="2" height="2" fill="#5d6285"/><rect x="26" y="19" width="8" height="2" fill="#212436"/><rect x="34" y="19" width="7" height="2" fill="#bd098e"/><rect x="41" y="19" width="2" height="2" fill="#212436"/><rect x="43" y="19" width="12" height="2" fill="#faf9fb"/><rect x="55" y="19" width="19" height="2" fill="#212436"/><rect x="22" y="21" width="52" height="2" fill="#212436"/><rect x="22" y="23" width="2" height="2" fill="#212436"/><rect x="24" y="23" width="2" height="2" fill="#5d6285"/><rect x="26" y="23" width="48" height="2" fill="#212436"/><rect x="22" y="25" width="52" height="2" fill="#212436"/><rect x="22" y="27" width="2" height="2" fill="#212436"/><rect x="24" y="27" width="2" height="2" fill="#5d6285"/><rect x="26" y="27" width="4" height="2" fill="#212436"/><rect x="30" y="27" width="15" height="2" fill="#f1c40f"/><rect x="45" y="27" width="2" height="2" fill="#212436"/><rect x="47" y="27" width="4" height="2" fill="#bd098e"/><rect x="51" y="27" width="23" height="2" fill="#212436"/><rect x="22" y="29" width="52" height="2" fill="#212436"/><rect x="22" y="31" width="2" height="2" fill="#212436"/><rect x="24" y="31" width="2" height="2" fill="#5d6285"/><rect x="26" y="31" width="4" height="2" fill="#212436"/><rect x="30" y="31" width="7" height="2" fill="#bd098e"/><rect x="37" y="31" width="2" height="2" fill="#212436"/><rect x="39" y="31" width="5" height="2" fill="#faf9fb"/><rect x="44" y="31" width="30" height="2" fill="#212436"/><rect x="22" y="33" width="52" height="1" fill="#212436"/><rect x="18" y="34" width="59" height="3" fill="#f1c40f"/><rect x="82" y="34" width="10" height="1" fill="#9a2036"/><rect x="82" y="35" width="9" height="3" fill="#cd2d48"/><rect x="91" y="35" width="1" height="9" fill="#9a2036"/><rect x="92" y="36" width="3" height="2" fill="#cd2d48"/><rect x="18" y="37" width="1" height="1" fill="#f1c40f"/><rect x="19" y="37" width="59" height="1" fill="#c29d0b"/><rect x="12" y="38" width="68" height="1" fill="#faf9fb"/><rect x="82" y="38" width="9" height="2" fill="#f1c40f"/><rect x="93" y="38" width="2" height="2" fill="#cd2d48"/><rect x="12" y="39" width="3" height="1" fill="#faf9fb"/><rect x="15" y="39" width="3" height="1" fill="#b2b6cb"/><rect x="18" y="39" width="1" height="1" fill="#faf9fb"/><rect x="19" y="39" width="3" height="1" fill="#b2b6cb"/><rect x="22" y="39" width="1" height="1" fill="#faf9fb"/><rect x="23" y="39" width="3" height="1" fill="#b2b6cb"/><rect x="26" y="39" width="1" height="1" fill="#faf9fb"/><rect x="27" y="39" width="3" height="1" fill="#b2b6cb"/><rect x="30" y="39" width="1" height="1" fill="#faf9fb"/><rect x="31" y="39" width="3" height="1" fill="#b2b6cb"/><rect x="34" y="39" width="1" height="1" fill="#faf9fb"/><rect x="35" y="39" width="3" height="1" fill="#b2b6cb"/><rect x="38" y="39" width="1" height="1" fill="#faf9fb"/><rect x="39" y="39" width="3" height="1" fill="#b2b6cb"/><rect x="42" y="39" width="1" height="1" fill="#faf9fb"/><rect x="43" y="39" width="3" height="1" fill="#b2b6cb"/><rect x="46" y="39" width="1" height="1" fill="#faf9fb"/><rect x="47" y="39" width="3" height="1" fill="#b2b6cb"/><rect x="50" y="39" width="1" height="1" fill="#faf9fb"/><rect x="51" y="39" width="3" height="1" fill="#b2b6cb"/><rect x="54" y="39" width="1" height="1" fill="#faf9fb"/><rect x="55" y="39" width="3" height="1" fill="#b2b6cb"/><rect x="58" y="39" width="1" height="1" fill="#faf9fb"/><rect x="59" y="39" width="3" height="1" fill="#b2b6cb"/><rect x="62" y="39" width="1" height="1" fill="#faf9fb"/><rect x="63" y="39" width="3" height="1" fill="#b2b6cb"/><rect x="66" y="39" width="1" height="1" fill="#faf9fb"/><rect x="67" y="39" width="3" height="1" fill="#b2b6cb"/><rect x="70" y="39" width="1" height="1" fill="#faf9fb"/><rect x="71" y="39" width="3" height="1" fill="#b2b6cb"/><rect x="74" y="39" width="1" height="1" fill="#faf9fb"/><rect x="75" y="39" width="3" height="1" fill="#b2b6cb"/><rect x="78" y="39" width="2" height="1" fill="#faf9fb"/><rect x="12" y="40" width="68" height="1" fill="#faf9fb"/><rect x="82" y="40" width="9" height="4" fill="#cd2d48"/><rect x="92" y="40" width="3" height="2" fill="#cd2d48"/><rect x="12" y="41" width="3" height="1" fill="#faf9fb"/><rect x="15" y="41" width="3" height="1" fill="#b2b6cb"/><rect x="18" y="41" width="1" height="1" fill="#faf9fb"/><rect x="19" y="41" width="3" height="1" fill="#b2b6cb"/><rect x="22" y="41" width="1" height="1" fill="#faf9fb"/><rect x="23" y="41" width="3" height="1" fill="#b2b6cb"/><rect x="26" y="41" width="1" height="1" fill="#faf9fb"/><rect x="27" y="41" width="3" height="1" fill="#b2b6cb"/><rect x="30" y="41" width="1" height="1" fill="#faf9fb"/><rect x="31" y="41" width="3" height="1" fill="#b2b6cb"/><rect x="34" y="41" width="1" height="1" fill="#faf9fb"/><rect x="35" y="41" width="3" height="1" fill="#b2b6cb"/><rect x="38" y="41" width="1" height="1" fill="#faf9fb"/><rect x="39" y="41" width="3" height="1" fill="#b2b6cb"/><rect x="42" y="41" width="1" height="1" fill="#faf9fb"/><rect x="43" y="41" width="3" height="1" fill="#b2b6cb"/><rect x="46" y="41" width="1" height="1" fill="#faf9fb"/><rect x="47" y="41" width="3" height="1" fill="#b2b6cb"/><rect x="50" y="41" width="1" height="1" fill="#faf9fb"/><rect x="51" y="41" width="3" height="1" fill="#b2b6cb"/><rect x="54" y="41" width="1" height="1" fill="#faf9fb"/><rect x="55" y="41" width="3" height="1" fill="#b2b6cb"/><rect x="58" y="41" width="1" height="1" fill="#faf9fb"/><rect x="59" y="41" width="3" height="1" fill="#b2b6cb"/><rect x="62" y="41" width="1" height="1" fill="#faf9fb"/><rect x="63" y="41" width="3" height="1" fill="#b2b6cb"/><rect x="66" y="41" width="1" height="1" fill="#faf9fb"/><rect x="67" y="41" width="3" height="1" fill="#b2b6cb"/><rect x="70" y="41" width="1" height="1" fill="#faf9fb"/><rect x="71" y="41" width="3" height="1" fill="#b2b6cb"/><rect x="74" y="41" width="1" height="1" fill="#faf9fb"/><rect x="75" y="41" width="3" height="1" fill="#b2b6cb"/><rect x="78" y="41" width="2" height="1" fill="#faf9fb"/><rect x="12" y="42" width="68" height="2" fill="#faf9fb"/><rect x="0" y="44" width="96" height="1" fill="#4458a0"/><rect x="0" y="45" width="6" height="1" fill="#4458a0"/><rect x="6" y="45" width="1" height="1" fill="#faf9fb"/><rect x="7" y="45" width="2" height="1" fill="#4458a0"/><rect x="9" y="45" width="1" height="1" fill="#faf9fb"/><rect x="10" y="45" width="2" height="1" fill="#4458a0"/><rect x="12" y="45" width="1" height="1" fill="#bd098e"/><rect x="13" y="45" width="5" height="1" fill="#4458a0"/><rect x="18" y="45" width="1" height="1" fill="#bd098e"/><rect x="19" y="45" width="9" height="1" fill="#4458a0"/><rect x="28" y="45" width="1" height="1" fill="#f1c40f"/><rect x="29" y="45" width="43" height="1" fill="#4458a0"/><rect x="72" y="45" width="1" height="1" fill="#f1c40f"/><rect x="73" y="45" width="7" height="1" fill="#4458a0"/><rect x="80" y="45" width="1" height="1" fill="#f1c40f"/><rect x="81" y="45" width="15" height="1" fill="#4458a0"/><rect x="0" y="46" width="7" height="1" fill="#4458a0"/><rect x="7" y="46" width="1" height="1" fill="#faf9fb"/><rect x="8" y="46" width="1" height="1" fill="#bd098e"/><rect x="9" y="46" width="29" height="1" fill="#4458a0"/><rect x="38" y="46" width="1" height="1" fill="#bd098e"/><rect x="39" y="46" width="1" height="1" fill="#faf9fb"/><rect x="40" y="46" width="13" height="1" fill="#4458a0"/><rect x="53" y="46" width="1" height="1" fill="#faf9fb"/><rect x="54" y="46" width="20" height="1" fill="#4458a0"/><rect x="74" y="46" width="1" height="1" fill="#f1c40f"/><rect x="75" y="46" width="14" height="1" fill="#4458a0"/><rect x="89" y="46" width="1" height="1" fill="#f1c40f"/><rect x="90" y="46" width="6" height="1" fill="#4458a0"/><rect x="0" y="47" width="12" height="1" fill="#4458a0"/><rect x="12" y="47" width="1" height="1" fill="#faf9fb"/><rect x="13" y="47" width="4" height="1" fill="#4458a0"/><rect x="17" y="47" width="1" height="1" fill="#faf9fb"/><rect x="18" y="47" width="39" height="1" fill="#4458a0"/><rect x="57" y="47" width="1" height="1" fill="#faf9fb"/><rect x="58" y="47" width="5" height="1" fill="#4458a0"/><rect x="63" y="47" width="1" height="1" fill="#faf9fb"/><rect x="64" y="47" width="9" height="1" fill="#4458a0"/><rect x="73" y="47" width="1" height="1" fill="#f1c40f"/><rect x="74" y="47" width="22" height="1" fill="#4458a0"/><rect x="0" y="48" width="11" height="1" fill="#4458a0"/><rect x="11" y="48" width="1" height="1" fill="#f1c40f"/><rect x="12" y="48" width="7" height="1" fill="#4458a0"/><rect x="19" y="48" width="1" height="1" fill="#bd098e"/><rect x="20" y="48" width="39" height="1" fill="#4458a0"/><rect x="59" y="48" width="1" height="1" fill="#bd098e"/><rect x="60" y="48" width="10" height="1" fill="#4458a0"/><rect x="70" y="48" width="1" height="1" fill="#f1c40f"/><rect x="71" y="48" width="3" height="1" fill="#4458a0"/><rect x="74" y="48" width="1" height="1" fill="#faf9fb"/><rect x="75" y="48" width="12" height="1" fill="#4458a0"/><rect x="87" y="48" width="1" height="1" fill="#bd098e"/><rect x="88" y="48" width="8" height="1" fill="#4458a0"/><rect x="0" y="49" width="96" height="1" fill="#33437c"/><rect class="px-code-type" x="30" y="23" width="32" height="2" fill="#faf9fb"/><rect class="px-cursor" x="64" y="23" width="2" height="2" fill="#f1c40f"/><rect class="px-steam px-steam-a" x="84" y="28" width="2" height="2" fill="#faf9fb"/><rect class="px-steam px-steam-b" x="88" y="28" width="2" height="2" fill="#faf9fb"/><rect class="px-steam px-steam-c" x="86" y="28" width="2" height="2" fill="#faf9fb"/><rect x="18" y="42" width="2" height="26" fill="#8a0768"/><rect x="20" y="42" width="8" height="26" fill="#bd098e"/><rect x="68" y="42" width="8" height="26" fill="#bd098e"/><rect x="76" y="42" width="2" height="26" fill="#8a0768"/><g class="px-hand"><rect x="22" y="38" width="2" height="3" fill="#8d5524"/><rect x="24" y="38" width="1" height="3" fill="#673c19"/><rect x="25" y="38" width="1" height="3" fill="#8d5524"/><rect x="26" y="38" width="1" height="3" fill="#673c19"/><rect x="27" y="38" width="1" height="3" fill="#8d5524"/><rect x="28" y="38" width="1" height="3" fill="#673c19"/><rect x="29" y="38" width="1" height="3" fill="#8d5524"/><rect x="22" y="41" width="8" height="2" fill="#8d5524"/><rect x="22" y="43" width="8" height="1" fill="#673c19"/></g><g class="px-hand px-hand-b"><rect x="66" y="38" width="2" height="3" fill="#8d5524"/><rect x="68" y="38" width="1" height="3" fill="#673c19"/><rect x="69" y="38" width="1" height="3" fill="#8d5524"/><rect x="70" y="38" width="1" height="3" fill="#673c19"/><rect x="71" y="38" width="1" height="3" fill="#8d5524"/><rect x="72" y="38" width="1" height="3" fill="#673c19"/><rect x="73" y="38" width="1" height="3" fill="#8d5524"/><rect x="66" y="41" width="8" height="2" fill="#8d5524"/><rect x="66" y="43" width="8" height="1" fill="#673c19"/></g><g class="px-head"><rect x="44" y="32" width="10" height="1" fill="#4a4e66"/><rect x="42" y="33" width="3" height="1" fill="#4a4e66"/><rect x="45" y="33" width="8" height="1" fill="#16161c"/><rect x="53" y="33" width="3" height="1" fill="#4a4e66"/><rect x="41" y="34" width="1" height="3" fill="#4a4e66"/><rect x="42" y="34" width="6" height="1" fill="#16161c"/><rect x="48" y="34" width="3" height="1" fill="#4a4e66"/><rect x="51" y="34" width="5" height="1" fill="#16161c"/><rect x="56" y="34" width="1" height="3" fill="#4a4e66"/><rect x="40" y="35" width="1" height="2" fill="#16161c"/><rect x="42" y="35" width="2" height="2" fill="#16161c"/><rect x="44" y="35" width="1" height="5" fill="#4a4e66"/><rect x="45" y="35" width="3" height="5" fill="#16161c"/><rect x="48" y="35" width="1" height="6" fill="#4a4e66"/><rect x="49" y="35" width="7" height="1" fill="#16161c"/><rect x="57" y="35" width="1" height="2" fill="#16161c"/><rect x="49" y="36" width="3" height="5" fill="#16161c"/><rect x="52" y="36" width="1" height="6" fill="#4a4e66"/><rect x="53" y="36" width="3" height="1" fill="#16161c"/><rect x="40" y="37" width="4" height="3" fill="#16161c"/><rect x="53" y="37" width="5" height="3" fill="#16161c"/><rect x="40" y="40" width="8" height="1" fill="#16161c"/><rect x="53" y="40" width="2" height="2" fill="#16161c"/><rect x="55" y="40" width="1" height="4" fill="#4a4e66"/><rect x="56" y="40" width="2" height="4" fill="#16161c"/><rect x="38" y="41" width="2" height="1" fill="#8d5524"/><rect x="40" y="41" width="2" height="5" fill="#16161c"/><rect x="42" y="41" width="1" height="5" fill="#4a4e66"/><rect x="43" y="41" width="9" height="1" fill="#16161c"/><rect x="58" y="41" width="2" height="1" fill="#8d5524"/><rect x="38" y="42" width="1" height="4" fill="#8d5524"/><rect x="39" y="42" width="1" height="4" fill="#673c19"/><rect x="43" y="42" width="12" height="1" fill="#16161c"/><rect x="58" y="42" width="1" height="4" fill="#673c19"/><rect x="59" y="42" width="1" height="4" fill="#8d5524"/><rect x="43" y="43" width="7" height="1" fill="#16161c"/><rect x="50" y="43" width="1" height="5" fill="#4a4e66"/><rect x="51" y="43" width="4" height="1" fill="#16161c"/><rect x="43" y="44" width="3" height="2" fill="#16161c"/><rect x="46" y="44" width="1" height="4" fill="#4a4e66"/><rect x="47" y="44" width="3" height="4" fill="#16161c"/><rect x="51" y="44" width="7" height="4" fill="#16161c"/><rect x="38" y="46" width="2" height="1" fill="#8d5524"/><rect x="40" y="46" width="6" height="2" fill="#16161c"/><rect x="58" y="46" width="2" height="1" fill="#8d5524"/><rect x="40" y="48" width="18" height="3" fill="#16161c"/><rect x="43" y="51" width="12" height="1" fill="#673c19"/><rect x="43" y="52" width="12" height="6" fill="#8d5524"/></g><rect x="38" y="54" width="4" height="1" fill="#bd098e"/><rect x="42" y="54" width="14" height="1" fill="#8a0768"/><rect x="56" y="54" width="4" height="1" fill="#bd098e"/><rect x="36" y="55" width="7" height="1" fill="#bd098e"/><rect x="43" y="55" width="12" height="1" fill="#8a0768"/><rect x="55" y="55" width="7" height="1" fill="#bd098e"/><rect x="34" y="56" width="30" height="1" fill="#bd098e"/><rect x="32" y="57" width="34" height="1" fill="#bd098e"/><rect x="30" y="58" width="19" height="1" fill="#bd098e"/><rect x="49" y="58" width="1" height="10" fill="#8a0768"/><rect x="50" y="58" width="18" height="1" fill="#bd098e"/><rect x="28" y="59" width="21" height="9" fill="#bd098e"/><rect x="50" y="59" width="20" height="9" fill="#bd098e"/><rect x="26" y="60" width="2" height="8" fill="#8a0768"/><rect x="70" y="60" width="2" height="8" fill="#8a0768"/></svg></svg>
