<svg xmlns="http://www.w3.org/2000/svg" viewBox="0 0 26 18" shape-rendering="crispEdges" role="img" aria-label="India"><title>India</title><rect x="0" y="0" width="26" height="1" fill="#212436"/><rect x="0" y="1" width="1" height="16" fill="#212436"/><rect x="1" y="1" width="24" height="5" fill="#ff9933"/><rect x="25" y="1" width="1" height="16" fill="#212436"/><rect x="1" y="6" width="11" height="1" fill="#ffffff"/><rect x="12" y="6" width="2" height="1" fill="#000080"/><rect x="14" y="6" width="11" height="1" fill="#ffffff"/><rect x="1" y="7" width="10" height="1" fill="#ffffff"/><rect x="11" y="7" width="1" height="1" fill="#000080"/><rect x="12" y="7" width="2" height="1" fill="#ffffff"/><rect x="14" y="7" width="1" height="1" fill="#000080"/><rect x="15" y="7" width="10" height="1" fill="#ffffff"/><rect x="1" y="8" width="9" height="2" fill="#ffffff"/><rect x="10" y="8" width="1" height="2" fill="#000080"/><rect x="11" y="8" width="1" height="2" fill="#ffffff"/><rect x="12" y="8" width="2" height="2" fill="#000080"/><rect x="14" y="8" width="1" height="2" fill="#ffffff"/><rect x="15" y="8" width="1" height="2" fill="#000080"/><rect x="16" y="8" width="9" height="2" fill="#ffffff"/><rect x="1" y="10" width="10" height="1" fill="#ffffff"/><rect x="11" y="10" width="1" height="1" fill="#000080"/><rect x="12" y="10" width="2" height="1" fill="#ffffff"/><rect x="14" y="10" width="1" height="1" fill="#000080"/><rect x="15" y="10" width="10" height="1" fill="#ffffff"/><rect x="1" y="11" width="11" height="1" fill="#ffffff"/><rect x="12" y="11" width="2" height="1" fill="#000080"/><rect x="14" y="11" width="11" height="1" fill="#ffffff"/><rect x="1" y="12" width="24" height="5" fill="#138808"/><rect x="0" y="17" width="26" height="1" fill="#212436"/></svg>
